<svg width="28" height="23" viewBox="0 0 28 23" xmlns="http://www.w3.org/2000/svg">
<path d="M5.40625 6.51562C5.40625 6.04101 5.79101 5.65625 6.26562 5.65625H18.2969C18.7714 5.65625 19.1562 6.04101 19.1562 6.51562C19.1562 6.99024 18.7714 7.375 18.2969 7.375H6.26562C5.79101 7.375 5.40625 6.99024 5.40625 6.51562Z"/>
<path d="M14.8594 10.8125C14.3848 10.8125 14 11.1973 14 11.6719C14 12.1465 14.3848 12.5312 14.8594 12.5312H18.2969C18.7714 12.5312 19.1562 12.1465 19.1562 11.6719C19.1562 11.1973 18.7714 10.8125 18.2969 10.8125H14.8594Z" />
<path d="M14 16.8281C14 16.3536 14.3848 15.9688 14.8594 15.9688H18.2969C18.7714 15.9688 19.1562 16.3536 19.1562 16.8281C19.1562 17.3027 18.7714 17.6875 18.2969 17.6875H14.8594C14.3848 17.6875 14 17.3027 14 16.8281Z" />
<path d="M6.26562 10.8125C5.79101 10.8125 5.40625 11.1973 5.40625 11.6719V16.8281C5.40625 17.3027 5.79101 17.6875 6.26562 17.6875H11.4219C11.8965 17.6875 12.2812 17.3027 12.2812 16.8281V11.6719C12.2812 11.1973 11.8965 10.8125 11.4219 10.8125H6.26562ZM7.125 15.9688V12.5312H10.5625V15.9688H7.125Z" />
<path d="M0.25 3.9375C0.25 2.03902 1.78902 0.5 3.6875 0.5H20.875C22.7735 0.5 24.3125 2.03902 24.3125 3.9375V5.65625C26.211 5.65625 27.75 7.19527 27.75 9.09375V18.5469C27.75 20.92 25.8262 22.8437 23.4531 22.8437H4.54688C2.17378 22.8437 0.25 20.92 0.25 18.5469V3.9375ZM22.5938 3.9375C22.5938 2.98827 21.8243 2.21875 20.875 2.21875H3.6875C2.73825 2.21875 1.96875 2.98827 1.96875 3.9375V18.5469C1.96875 19.9707 3.12301 21.125 4.54688 21.125H23.4531C24.8769 21.125 26.0312 19.9707 26.0312 18.5469V9.09375C26.0312 8.14452 25.2618 7.375 24.3125 7.375V18.5469C24.3125 19.0214 23.9277 19.4062 23.4531 19.4062C22.9786 19.4062 22.5938 19.0214 22.5938 18.5469V3.9375Z"/>
</svg>
