<svg width="28" height="28" viewBox="0 0 28 28" xmlns="http://www.w3.org/2000/svg">
<path d="M27.25 14C27.25 6.69925 21.3008 0.75 14 0.75C6.69925 0.75 0.75 6.69925 0.75 14C0.75 17.8425 2.40625 21.3008 5.02975 23.7255C5.02975 23.7388 5.02975 23.7388 5.0165 23.752C5.149 23.8845 5.308 23.9905 5.4405 24.1097C5.52 24.176 5.58625 24.2423 5.66575 24.2953C5.90425 24.494 6.16925 24.6795 6.421 24.865C6.51375 24.9313 6.59325 24.9843 6.686 25.0505C6.93775 25.2228 7.20275 25.3818 7.481 25.5275C7.57375 25.5805 7.67975 25.6468 7.7725 25.6998C8.0375 25.8455 8.31575 25.978 8.60725 26.0972C8.71325 26.1502 8.81925 26.2033 8.92525 26.243C9.21675 26.3623 9.50825 26.4683 9.79975 26.561C9.90575 26.6007 10.0118 26.6405 10.1178 26.667C10.4358 26.7598 10.7537 26.8393 11.0718 26.9188C11.1645 26.9453 11.2573 26.9718 11.3633 26.985C11.7343 27.0645 12.1053 27.1175 12.4895 27.1573C12.5425 27.1573 12.5955 27.1705 12.6485 27.1838C13.099 27.2235 13.5495 27.25 14 27.25C14.4505 27.25 14.901 27.2235 15.3383 27.1838C15.3913 27.1838 15.4443 27.1705 15.4973 27.1573C15.8815 27.1175 16.2525 27.0645 16.6235 26.985C16.7163 26.9718 16.809 26.932 16.915 26.9188C17.233 26.8393 17.5643 26.773 17.869 26.667C17.975 26.6273 18.081 26.5875 18.187 26.561C18.4785 26.455 18.7833 26.3623 19.0615 26.243C19.1675 26.2033 19.2735 26.1502 19.3795 26.0972C19.6577 25.978 19.936 25.8455 20.2143 25.6998C20.3203 25.6468 20.413 25.5805 20.5058 25.5275C20.7708 25.3685 21.0358 25.2228 21.3008 25.0505C21.3935 24.9975 21.473 24.9313 21.5658 24.865C21.8307 24.6795 22.0825 24.494 22.321 24.2953C22.4005 24.229 22.4668 24.1628 22.5463 24.1097C22.692 23.9905 22.8378 23.8713 22.9703 23.752C22.9703 23.7388 22.9703 23.7388 22.957 23.7255C25.5938 21.3008 27.25 17.8425 27.25 14ZM20.5455 20.5852C16.9548 18.1737 11.0718 18.1737 7.4545 20.5852C6.8715 20.9695 6.3945 21.42 5.997 21.9102C3.983 19.8697 2.7375 17.074 2.7375 14C2.7375 7.78575 7.78575 2.7375 14 2.7375C20.2143 2.7375 25.2625 7.78575 25.2625 14C25.2625 17.074 24.017 19.8697 22.003 21.9102C21.6188 21.42 21.1285 20.9695 20.5455 20.5852Z" />
<path d="M14 7.28186C11.2573 7.28186 9.03125 9.50786 9.03125 12.2506C9.03125 14.9404 11.138 17.1266 13.9338 17.2061H14.053H14.1457H14.1723C16.8488 17.1134 18.9555 14.9404 18.9688 12.2506C18.9688 9.50786 16.7428 7.28186 14 7.28186Z" />
</svg>
