<svg width="24" height="26" viewBox="0 0 24 26" xmlns="http://www.w3.org/2000/svg">
<path d="M5.25586 20.732H10.8759V25.228L8.06586 23.542L5.25586 25.228V20.732Z"/>
<path d="M20.992 0.5H12V25.228L14.81 23.542L17.62 25.228V22.98H20.992C21.5882 22.98 22.16 22.7432 22.5816 22.3216C23.0032 21.9 23.24 21.3282 23.24 20.732V2.748C23.24 2.15179 23.0032 1.58001 22.5816 1.15842C22.16 0.736842 21.5882 0.5 20.992 0.5ZM14.248 4.996H16.496V7.244H14.248V4.996ZM14.248 10.616H16.496V12.864H14.248V10.616ZM14.248 16.236H16.496V18.484H14.248V16.236Z" />
<path d="M3.00777 0.5C2.4121 0.501744 1.84132 0.739146 1.42012 1.16035C0.998911 1.58155 0.761509 2.15233 0.759766 2.748V20.732C0.761545 21.3277 0.998958 21.8984 1.42015 22.3196C1.84135 22.7408 2.41211 22.9782 3.00777 22.98V2.748H10.8758V0.5H3.00777Z" />
<path d="M5.25586 4.996H7.50386V7.244H5.25586V4.996Z"/>
<path d="M5.25586 10.616H7.50386V12.864H5.25586V10.616Z"/>
<path d="M5.25586 16.236H7.50386V18.484H5.25586V16.236Z" />
</svg>
