<svg width="30" height="24" viewBox="0 0 30 24" xmlns="http://www.w3.org/2000/svg">
<path d="M1.82373 22.5V21.2647C1.82373 16.4891 5.69515 12.6176 10.4708 12.6176C15.2464 12.6176 19.1178 16.4891 19.1178 21.2647V22.5" stroke="#737791" stroke-width="1.85294" stroke-linecap="round"/>
<path d="M16.6475 15.0882C16.6475 11.6771 19.4128 8.91177 22.8239 8.91177C26.2351 8.91177 29.0004 11.6771 29.0004 15.0882V15.7059" stroke="#737791" stroke-width="1.85294" stroke-linecap="round"/>
<path d="M10.471 12.6176C13.1999 12.6176 15.4121 10.4054 15.4121 7.67647C15.4121 4.94753 13.1999 2.73529 10.471 2.73529C7.74202 2.73529 5.52979 4.94753 5.52979 7.67647C5.52979 10.4054 7.74202 12.6176 10.471 12.6176Z" stroke="#737791" stroke-width="1.85294" stroke-linecap="round" stroke-linejoin="round"/>
<path d="M22.8236 8.91176C24.8703 8.91176 26.5294 7.25258 26.5294 5.20588C26.5294 3.15919 24.8703 1.5 22.8236 1.5C20.7768 1.5 19.1177 3.15919 19.1177 5.20588C19.1177 7.25258 20.7768 8.91176 22.8236 8.91176Z" stroke="#737791" stroke-width="1.85294" stroke-linecap="round" stroke-linejoin="round"/>
</svg>
