<svg width="36" height="36" viewBox="0 0 36 36" xmlns="http://www.w3.org/2000/svg">
<g filter="url(#filter0_d_108_313)">
<path d="M30 26.6665C30 24.3444 27.7739 22.3689 24.6667 21.6367M22 26.6667C22 23.7212 18.4183 21.3333 14 21.3333C9.58172 21.3333 6 23.7212 6 26.6667M22 17.3333C24.9455 17.3333 27.3333 14.9455 27.3333 12C27.3333 9.05447 24.9455 6.66666 22 6.66666M14 17.3333C11.0545 17.3333 8.66667 14.9455 8.66667 12C8.66667 9.05447 11.0545 6.66666 14 6.66666C16.9455 6.66666 19.3333 9.05447 19.3333 12C19.3333 14.9455 16.9455 17.3333 14 17.3333Z" stroke="#737791" stroke-width="2.66667" stroke-linecap="round" stroke-linejoin="round"/>
</g>
<defs>
<filter id="filter0_d_108_313" x="-2" y="0" width="40" height="40" filterUnits="userSpaceOnUse" color-interpolation-filters="sRGB">
<feFlood flood-opacity="0" result="BackgroundImageFix"/>
<feColorMatrix in="SourceAlpha" type="matrix" values="0 0 0 0 0 0 0 0 0 0 0 0 0 0 0 0 0 0 127 0" result="hardAlpha"/>
<feOffset dy="4"/>
<feGaussianBlur stdDeviation="2"/>
<feComposite in2="hardAlpha" operator="out"/>
<feColorMatrix type="matrix" values="0 0 0 0 0 0 0 0 0 0 0 0 0 0 0 0 0 0 0.25 0"/>
<feBlend mode="normal" in2="BackgroundImageFix" result="effect1_dropShadow_108_313"/>
<feBlend mode="normal" in="SourceGraphic" in2="effect1_dropShadow_108_313" result="shape"/>
</filter>
</defs>
</svg>
